<svg width="16" height="16" viewBox="0 0 16 16" fill="none" xmlns="http://www.w3.org/2000/svg">
<path d="M11.5 1.5H11.1434C11.0932 1.49995 11.0442 1.48478 11.0027 1.45646C10.9612 1.42815 10.9293 1.388 10.9109 1.34125C10.8149 1.09371 10.6463 0.880946 10.4273 0.730837C10.2082 0.580728 9.94897 0.50027 9.68344 0.5H6.31656C6.05103 0.50027 5.79177 0.580728 5.57274 0.730837C5.35371 0.880946 5.18513 1.09371 5.08906 1.34125C5.07073 1.388 5.03875 1.42815 4.99728 1.45646C4.95581 1.48478 4.90678 1.49995 4.85656 1.5H4.5C3.96957 1.5 3.46086 1.71071 3.08579 2.08579C2.71071 2.46086 2.5 2.96957 2.5 3.5V13.5C2.5 14.0304 2.71071 14.5391 3.08579 14.9142C3.46086 15.2893 3.96957 15.5 4.5 15.5H11.5C12.0304 15.5 12.5391 15.2893 12.9142 14.9142C13.2893 14.5391 13.5 14.0304 13.5 13.5V3.5C13.5 2.96957 13.2893 2.46086 12.9142 2.08579C12.5391 1.71071 12.0304 1.5 11.5 1.5ZM9.99594 3.5H6.00406C5.87145 3.5 5.74428 3.44732 5.65051 3.35355C5.55674 3.25979 5.50406 3.13261 5.50406 3C5.50406 2.86739 5.55674 2.74021 5.65051 2.64645C5.74428 2.55268 5.87145 2.5 6.00406 2.5H9.99594C10.1285 2.5 10.2557 2.55268 10.3495 2.64645C10.4433 2.74021 10.4959 2.86739 10.4959 3C10.4959 3.13261 10.4433 3.25979 10.3495 3.35355C10.2557 3.44732 10.1285 3.5 9.99594 3.5Z" fill="#0423EE"/>
</svg>
