<svg width="24" height="24" viewBox="0 0 24 24" fill="none" xmlns="http://www.w3.org/2000/svg">
<path fill-rule="evenodd" clip-rule="evenodd" d="M8.25003 2.83333C8.25003 2.3731 8.62313 2 9.08336 2H14.9167C15.3769 2 15.75 2.3731 15.75 2.83333V9.5H19.9167C20.2579 9.5 20.5646 9.70794 20.6908 10.0249C20.8171 10.3418 20.7375 10.7037 20.4898 10.9383L12.5732 18.4383C12.2517 18.7428 11.7483 18.7428 11.4269 18.4383L3.51024 10.9383C3.26258 10.7037 3.18294 10.3418 3.30923 10.0249C3.43551 9.70794 3.74221 9.5 4.08336 9.5H8.25003V2.83333ZM9.9167 3.66667V10.3333C9.9167 10.7936 9.5436 11.1667 9.08336 11.1667H6.17468L12 16.6854L17.8254 11.1667H14.9167C14.4565 11.1667 14.0834 10.7936 14.0834 10.3333V3.66667H9.9167Z" fill="white"/>
<path d="M9.9167 10.3333V3.66667H14.0834V10.3333C14.0834 10.7936 14.4565 11.1667 14.9167 11.1667H17.8254L12 16.6854L6.17468 11.1667H9.08336C9.5436 11.1667 9.9167 10.7936 9.9167 10.3333Z" fill="white"/>
<rect x="3" y="21.3333" width="18" height="2" fill="white"/>
</svg>
