<svg width="166" height="48" viewBox="0 0 166 48" fill="none" xmlns="http://www.w3.org/2000/svg">
<path d="M159.78 48H6.14539C2.76696 48 0 45.2985 0 42V6C0 2.7015 2.76696 -2.1874e-06 6.14539 -2.1874e-06H159.78C163.158 -2.1874e-06 165.925 2.7015 165.925 6V42C165.925 45.2985 163.158 48 159.78 48Z" fill="black"/>
<path d="M159.78 0.961498C162.625 0.961498 164.941 3.222 164.941 6V42C164.941 44.778 162.625 47.0385 159.78 47.0385H6.14539C3.30007 47.0385 0.984798 44.778 0.984798 42V6C0.984798 3.222 3.30007 0.961498 6.14539 0.961498H159.78ZM159.78 -2.1874e-06H6.14539C2.76696 -2.1874e-06 0 2.7015 0 6V42C0 45.2985 2.76696 48 6.14539 48H159.78C163.158 48 165.925 45.2985 165.925 42V6C165.925 2.7015 163.158 -2.1874e-06 159.78 -2.1874e-06Z" fill="#F1F1F2"/>
<path d="M58.2795 12.2928C58.2795 13.2948 57.9723 14.0973 57.367 14.6958C56.671 15.4053 55.7645 15.7623 54.6538 15.7623C53.5922 15.7623 52.6857 15.3993 51.9421 14.6838C51.197 13.9578 50.8252 13.0668 50.8252 12.0003C50.8252 10.9338 51.197 10.0428 51.9421 9.32278C52.6857 8.60128 53.5922 8.23828 54.6538 8.23828C55.1823 8.23828 55.6862 8.34478 56.1671 8.54278C56.6464 8.74228 57.0366 9.01228 57.3193 9.34528L56.6771 9.97828C56.184 9.40978 55.5126 9.12928 54.6538 9.12928C53.8795 9.12928 53.2081 9.39328 52.6381 9.92578C52.0742 10.4598 51.7916 11.1513 51.7916 12.0003C51.7916 12.8493 52.0742 13.5468 52.6381 14.0808C53.2081 14.6073 53.8795 14.8773 54.6538 14.8773C55.4757 14.8773 56.1671 14.6073 56.7125 14.0748C57.072 13.7223 57.2763 13.2363 57.3301 12.6153H54.6538V11.7483H58.2242C58.2673 11.9358 58.2795 12.1173 58.2795 12.2928Z" fill="white" stroke="white" stroke-width="0.16" stroke-miterlimit="10"/>
<path d="M63.9444 9.28648H60.5906V11.5665H63.6141V12.4335H60.5906V14.7135H63.9444V15.597H59.6411V8.40298H63.9444V9.28648Z" fill="white" stroke="white" stroke-width="0.16" stroke-miterlimit="10"/>
<path d="M67.9417 15.597H66.9922V9.28648H64.9351V8.40298H70.0004V9.28648H67.9417V15.597Z" fill="white" stroke="white" stroke-width="0.16" stroke-miterlimit="10"/>
<path d="M73.6665 15.597V8.40298H74.6144V15.597H73.6665Z" fill="white" stroke="white" stroke-width="0.16" stroke-miterlimit="10"/>
<path d="M78.8162 15.5969H77.8744V9.28642H75.8096V8.40292H80.881V9.28642H78.8162V15.5969Z" fill="white" stroke="white" stroke-width="0.16" stroke-miterlimit="10"/>
<path d="M90.4707 14.6718C89.744 15.3993 88.8437 15.7623 87.7698 15.7623C86.6897 15.7623 85.7895 15.3993 85.0628 14.6718C84.3376 13.9458 83.9766 13.0548 83.9766 12.0003C83.9766 10.9458 84.3376 10.0548 85.0628 9.32878C85.7895 8.60128 86.6897 8.23828 87.7698 8.23828C88.8376 8.23828 89.7379 8.60128 90.4646 9.33478C91.1959 10.0668 91.5569 10.9518 91.5569 12.0003C91.5569 13.0548 91.1959 13.9458 90.4707 14.6718ZM85.7649 14.0688C86.3118 14.6073 86.977 14.8773 87.7698 14.8773C88.5564 14.8773 89.2278 14.6073 89.7686 14.0688C90.314 13.5303 90.5905 12.8388 90.5905 12.0003C90.5905 11.1618 90.314 10.4703 89.7686 9.93178C89.2278 9.39328 88.5564 9.12328 87.7698 9.12328C86.977 9.12328 86.3118 9.39328 85.7649 9.93178C85.2195 10.4703 84.9429 11.1618 84.9429 12.0003C84.9429 12.8388 85.2195 13.5303 85.7649 14.0688Z" fill="white" stroke="white" stroke-width="0.16" stroke-miterlimit="10"/>
<path d="M92.8892 15.5969V8.40292H94.0414L97.6242 13.9979H97.6657L97.6242 12.6149V8.40292H98.5721V15.5969H97.5827L93.8309 9.72592H93.7895L93.8309 11.1149V15.5969H92.8892Z" fill="white" stroke="white" stroke-width="0.16" stroke-miterlimit="10"/>
<path d="M83.7433 26.1032C80.8565 26.1032 78.4982 28.2482 78.4982 31.2077C78.4982 34.1432 80.8565 36.3107 83.7433 36.3107C86.6362 36.3107 88.9945 34.1432 88.9945 31.2077C88.9945 28.2482 86.6362 26.1032 83.7433 26.1032ZM83.7433 34.3007C82.1593 34.3007 80.7965 33.0242 80.7965 31.2077C80.7965 29.3672 82.1593 28.1132 83.7433 28.1132C85.3272 28.1132 86.6961 29.3672 86.6961 31.2077C86.6961 33.0242 85.3272 34.3007 83.7433 34.3007ZM72.299 26.1032C69.4061 26.1032 67.0539 28.2482 67.0539 31.2077C67.0539 34.1432 69.4061 36.3107 72.299 36.3107C75.1904 36.3107 77.5441 34.1432 77.5441 31.2077C77.5441 28.2482 75.1904 26.1032 72.299 26.1032ZM72.299 34.3007C70.7135 34.3007 69.3462 33.0242 69.3462 31.2077C69.3462 29.3672 70.7135 28.1132 72.299 28.1132C73.883 28.1132 75.2457 29.3672 75.2457 31.2077C75.2457 33.0242 73.883 34.3007 72.299 34.3007ZM58.6808 27.6677V29.8367H63.9858C63.8307 31.0487 63.4159 31.9397 62.7798 32.5607C62.0055 33.3107 60.7995 34.1432 58.6808 34.1432C55.4161 34.1432 52.8596 31.5707 52.8596 28.3832C52.8596 25.1957 55.4161 22.6232 58.6808 22.6232C60.4461 22.6232 61.7305 23.2967 62.6784 24.1697L64.2439 22.6412C62.9181 21.4052 61.1543 20.4557 58.6808 20.4557C54.2039 20.4557 50.4414 24.0122 50.4414 28.3832C50.4414 32.7542 54.2039 36.3107 58.6808 36.3107C61.1006 36.3107 62.9181 35.5367 64.3469 34.0847C65.811 32.6552 66.2673 30.6452 66.2673 29.0222C66.2673 28.5182 66.2243 28.0547 66.1475 27.6677H58.6808ZM114.367 29.3492C113.936 28.2077 112.604 26.1032 109.89 26.1032C107.202 26.1032 104.963 28.1717 104.963 31.2077C104.963 34.0667 107.179 36.3107 110.148 36.3107C112.55 36.3107 113.936 34.8812 114.506 34.0487L112.723 32.8892C112.129 33.7382 111.319 34.3007 110.148 34.3007C108.985 34.3007 108.151 33.7802 107.617 32.7542L114.608 29.9297L114.367 29.3492ZM107.239 31.0487C107.179 29.0807 108.804 28.0727 109.969 28.0727C110.881 28.0727 111.656 28.5182 111.914 29.1557L107.239 31.0487ZM101.556 36.0002H103.854V21.0002H101.556V36.0002ZM97.7916 27.2402H97.7148C97.1986 26.6432 96.2138 26.1032 94.9663 26.1032C92.3483 26.1032 89.9547 28.3472 89.9547 31.2242C89.9547 34.0847 92.3483 36.3107 94.9663 36.3107C96.2138 36.3107 97.1986 35.7662 97.7148 35.1512H97.7916V35.8832C97.7916 37.8347 96.7238 38.8832 95.0016 38.8832C93.5974 38.8832 92.7263 37.8932 92.3668 37.0607L90.368 37.8752C90.9441 39.2282 92.4697 40.8932 95.0016 40.8932C97.6964 40.8932 99.9701 39.3452 99.9701 35.5787V26.4137H97.7916V27.2402ZM95.1629 34.3007C93.5789 34.3007 92.2531 33.0062 92.2531 31.2242C92.2531 29.4257 93.5789 28.1132 95.1629 28.1132C96.7238 28.1132 97.9545 29.4257 97.9545 31.2242C97.9545 33.0062 96.7238 34.3007 95.1629 34.3007ZM125.128 21.0002H119.631V36.0002H121.923V30.3167H125.128C127.674 30.3167 130.17 28.5182 130.17 25.6577C130.17 22.7987 127.667 21.0002 125.128 21.0002ZM125.188 28.2302H121.923V23.0867H125.188C126.899 23.0867 127.876 24.4742 127.876 25.6577C127.876 26.8187 126.899 28.2302 125.188 28.2302ZM139.357 26.0747C137.701 26.0747 135.979 26.7887 135.271 28.3712L137.305 29.2037C137.743 28.3712 138.548 28.1012 139.399 28.1012C140.588 28.1012 141.794 28.7987 141.813 30.0302V30.1877C141.398 29.9537 140.51 29.6072 139.417 29.6072C137.227 29.6072 134.994 30.7847 134.994 32.9822C134.994 34.9922 136.789 36.2867 138.806 36.2867C140.348 36.2867 141.2 35.6072 141.734 34.8167H141.813V35.9762H144.026V30.2222C144.026 27.5627 141.992 26.0747 139.357 26.0747ZM139.081 34.2947C138.331 34.2947 137.286 33.9317 137.286 33.0242C137.286 31.8632 138.589 31.4177 139.717 31.4177C140.726 31.4177 141.2 31.6352 141.813 31.9217C141.633 33.3107 140.408 34.2947 139.081 34.2947ZM152.092 26.4032L149.457 32.9057H149.379L146.655 26.4032H144.183L148.276 35.4902L145.941 40.5467H148.336L154.643 26.4032H152.092ZM131.43 36.0002H133.728V21.0002H131.43V36.0002Z" fill="white"/>
<path d="M12.8254 9.0465C12.4643 9.4155 12.2554 9.98999 12.2554 10.734V37.272C12.2554 38.016 12.4643 38.5905 12.8254 38.9595L12.9145 39.0405L28.1458 24.1755V23.8245L12.9145 8.9595L12.8254 9.0465Z" fill="url(#paint0_linear_27_382)"/>
<path d="M33.2175 29.1328L28.146 24.1753V23.8243L33.2236 18.8668L33.3373 18.9313L39.3506 22.2718C41.0667 23.2198 41.0667 24.7798 39.3506 25.7338L33.3373 29.0683L33.2175 29.1328Z" fill="url(#paint1_linear_27_382)"/>
<path d="M33.3374 29.0688L28.1461 24.0003L12.8257 38.9598C13.3957 39.5448 14.3252 39.6153 15.3822 39.0303L33.3374 29.0688Z" fill="url(#paint2_linear_27_382)"/>
<path d="M33.3374 18.9315L15.3822 8.97C14.3252 8.391 13.3957 8.4615 12.8257 9.0465L28.1461 24L33.3374 18.9315Z" fill="url(#paint3_linear_27_382)"/>
<defs>
<linearGradient id="paint0_linear_27_382" x1="26.7934" y1="37.5484" x2="6.66034" y2="16.9274" gradientUnits="userSpaceOnUse">
<stop stop-color="#00A0FF"/>
<stop offset="0.0066" stop-color="#00A1FF"/>
<stop offset="0.2601" stop-color="#00BEFF"/>
<stop offset="0.5122" stop-color="#00D2FF"/>
<stop offset="0.7604" stop-color="#00DFFF"/>
<stop offset="1" stop-color="#00E3FF"/>
</linearGradient>
<linearGradient id="paint1_linear_27_382" x1="41.5852" y1="23.9981" x2="11.8454" y2="23.9981" gradientUnits="userSpaceOnUse">
<stop stop-color="#FFE000"/>
<stop offset="0.4087" stop-color="#FFBD00"/>
<stop offset="0.7754" stop-color="#FFA500"/>
<stop offset="1" stop-color="#FF9C00"/>
</linearGradient>
<linearGradient id="paint2_linear_27_382" x1="30.5146" y1="21.245" x2="3.21243" y2="-6.71874" gradientUnits="userSpaceOnUse">
<stop stop-color="#FF3A44"/>
<stop offset="1" stop-color="#C31162"/>
</linearGradient>
<linearGradient id="paint3_linear_27_382" x1="8.96921" y1="47.7886" x2="21.1608" y2="35.3016" gradientUnits="userSpaceOnUse">
<stop stop-color="#32A071"/>
<stop offset="0.0685" stop-color="#2DA771"/>
<stop offset="0.4762" stop-color="#15CF74"/>
<stop offset="0.8009" stop-color="#06E775"/>
<stop offset="1" stop-color="#00F076"/>
</linearGradient>
</defs>
</svg>
